#!OML:ASF \\sashay\E\basketball\basketball\Project 1\Capture day 1\Session 1\Subject.ASF
:FULLY-SPECIFIED
:DEGREES
127
root 4.96941 15.0838 -11.1357 -164.328 15.3942 180.292
lowerback 26.6022 -2.67565 -15.1542
upperback 10.0302 -5.16762 -1.51845
thorax -1.8532 -2.09267 8.2218
lowerneck -7.83518 -6.41267 -12.8305
upperneck -5.88258 -5.77009 34.5989
head 1.59049 -1.75596 13.5547
rclavicle 5.24792e-014 -4.13472e-014
rhumerus -28.6117 -25.0141 -76.5185
rradius 33.1792
rwrist -1.57734
rhand -33.8907 41.3872
rfingers 7.12502
rthumb -7.07409 11.5254
lclavicle 5.24792e-014 -4.13472e-014
lhumerus 11.0502 -16.8642 67.866
lradius 32.6395
lwrist -33.3798
lhand -34.1642 31.4316
lfingers 7.12502
lthumb -7.33802 61.2843
rfemur -63.3528 -21.5356 38.5903
rtibia 52.04
rfoot -13.4992 5.26757
rtoes -42.3765
lfemur 9.93299 -6.04752 -7.22427
ltibia 32.1812
lfoot 0.570687 9.85413
ltoes -30.4621
128
root 5.17118 15.0465 -11.3903 -164.449 16.4336 179.445
lowerback 26.766 -2.97074 -15.5944
upperback 10.0905 -5.6615 -1.72295
thorax -1.69917 -2.34635 8.35185
lowerneck -8.20307 -6.03026 -13.0142
upperneck -6.53806 -4.92456 34.6707
head 1.27908 -1.32094 13.7045
rclavicle -9.06458e-014 -1.11319e-014
rhumerus -28.0342 -24.7971 -77.1224
rradius 33.4009
rwrist -1.55946
rhand -33.9208 41.825
rfingers 7.12502
rthumb -7.10307 11.9642
lclavicle -9.06458e-014 -1.11319e-014
lhumerus 12.7581 -11.3739 69.2149
lradius 26.5862
lwrist -34.3398
lhand -29.6012 34.5892
lfingers 7.12502
lthumb -2.93235 64.5488
rfemur -62.4229 -20.2326 37.5306
rtibia 51.4773
rfoot -12.4952 6.00035
rtoes -41.4199
lfemur 10.2427 -6.0643 -8.46192
ltibia 33.967
lfoot 0.813954 9.24299
ltoes -30.1166
129
root 5.3688 15 -11.6507 -164.575 17.4995 178.543
lowerback 26.7552 -3.28586 -16.1034
upperback 10.1246 -6.18564 -1.84215
thorax -1.45861 -2.63467 8.60502
lowerneck -8.37142 -5.7182 -13.2111
upperneck -7.00849 -4.2742 34.7278
head 1.02636 -1.00133 13.8333
rclavicle 9.38264e-014 2.70347e-014
rhumerus -27.2837 -24.3796 -77.5535
rradius 33.4483
rwrist -1.4841
rhand -33.7967 42.2038
rfingers 7.12502
rthumb -6.98332 12.3389
lclavicle 9.38264e-014 2.70347e-014
lhumerus 14.0066 -2.92864 71.8038
lradius 21.3526
lwrist -34.6281
lhand -26.48 36.7953
lfingers 7.12502
lthumb 0.0821642 66.7751
rfemur -61.4513 -18.9074 36.1936
rtibia 51.4683
rfoot -11.6442 6.53386
rtoes -40.7428
lfemur 10.4431 -5.79152 -9.77533
ltibia 35.9455
lfoot 1.16584 8.75447
ltoes -31.3819
130
root 5.56077 14.9442 -11.9196 -164.67 18.6734 177.676
lowerback 26.5674 -3.6068 -16.4803
upperback 10.0714 -6.69528 -1.93008
thorax -1.2518 -2.92013 8.80257
lowerneck -8.52077 -5.40249 -13.4721
upperneck -7.18693 -3.73941 34.5847
head 0.865736 -0.741873 13.8744
rclavicle -1.59028e-015 4.77083e-014
rhumerus -26.575 -23.7383 -77.8034
rradius 33.4229
rwrist -1.23495
rhand -33.6283 42.3704
rfingers 7.12502
rthumb -6.82076 12.5003
lclavicle -1.59028e-015 4.77083e-014
lhumerus 15.2098 8.98977 75.6286
lradius 17.7442
lwrist -33.3558
lhand -28.1338 37.5687
lfingers 7.12502
lthumb -1.51513 67.5431
rfemur -60.6008 -17.8959 35.1622
rtibia 52.0881
rfoot -11.3188 5.10649
rtoes -34.688
lfemur 10.4911 -5.02021 -10.9816
ltibia 38.1864
lfoot 1.20212 8.30708
ltoes -32.3295
131
root 5.75547 14.8866 -12.1947 -164.795 20.0807 177.235
lowerback 26.312 -3.8503 -16.3816
upperback 10.046 -6.98228 -2.0896
thorax -1.12894 -3.07571 8.60656
lowerneck -8.94339 -5.14114 -13.5438
upperneck -7.009 -3.40447 34.2001
head 0.884068 -0.551627 13.7454
rclavicle -1.51076e-013 -4.29375e-014
rhumerus -26.0929 -23.1202 -78.1093
rradius 33.4748
rwrist -0.85598
rhand -33.6929 42.5388
rfingers 7.12502
rthumb -6.88311 12.6707
lclavicle -1.51076e-013 -4.29375e-014
lhumerus 15.6346 17.9915 78.2196
lradius 16.9855
lwrist -28.9952
lhand -30.9746 38.0952
lfingers 7.12502
lthumb -4.25865 68.0323
rfemur -59.5583 -16.8276 34.5904
rtibia 53.2771
rfoot -13.4628 1.70754
rtoes -33.6361
lfemur 10.6667 -3.58173 -11.6253
ltibia 40.6057
lfoot 0.956097 7.88173
ltoes -31.1137
132
root 5.95276 14.8187 -12.4711 -165.063 21.7078 177.127
lowerback 26.1729 -3.86634 -16.1278
upperback 10.0908 -6.93718 -2.16787
thorax -1.07994 -3.0591 8.35893
lowerneck -9.44184 -4.91794 -13.2758
upperneck -6.8426 -3.1906 33.2861
head 0.907465 -0.442509 13.305
rclavicle -1.145e-013 3.33958e-014
rhumerus -25.7481 -22.7004 -78.2292
rradius 33.6226
rwrist -0.694446
rhand -33.7269 42.7916
rfingers 7.12502
rthumb -6.91596 12.9246
lclavicle -1.145e-013 3.33958e-014
lhumerus 14.5513 22.3037 79.0409
lradius 18.8507
lwrist -21.5216
lhand -33.7425 38.4457
lfingers 7.12502
lthumb -6.93103 68.3122
rfemur -58.3025 -15.5971 34.2782
rtibia 54.8167
rfoot -15.5444 -0.877887
rtoes -30.0675
lfemur 11.1048 -1.99236 -12.0385
ltibia 43.1856
lfoot 0.618545 7.85838
ltoes -29.0498
133
root 6.15103 14.7557 -12.7505 -165.377 23.4139 177.174
lowerback 26.2865 -3.63642 -16.132
upperback 10.0145 -6.71414 -1.80537
thorax -1.23034 -2.97115 8.7396
lowerneck -10.0821 -4.60587 -13.8554
upperneck -6.37753 -2.89402 32.1715
head 1.03042 -0.283313 12.9771
rclavicle -8.11041e-014 -4.92986e-014
rhumerus -25.602 -21.7763 -77.6575
rradius 33.9885
rwrist -0.91772
rhand -33.7388 43.1625
rfingers 7.12502
rthumb -6.92738 13.2959
lclavicle -8.11041e-014 -4.92986e-014
lhumerus 12.1433 24.4569 79.4309
lradius 22.2519
lwrist -13.6293
lhand -35.6715 39.1689
lfingers 7.12502
lthumb -8.79281 68.9657
rfemur -57.2945 -14.4587 34.2586
rtibia 56.4798
rfoot -16.9309 -2.17974
rtoes -27.325
lfemur 11.4267 -0.303071 -12.2986
ltibia 46.1739
lfoot 0.232882 7.86254
ltoes -28.4754
134
root 6.34388 14.7133 -13.0367 -165.301 25.1173 177.749
lowerback 26.2815 -3.43993 -15.4875
upperback 9.87381 -6.39562 -1.36868
thorax -1.52499 -2.81914 8.82576
lowerneck -10.4465 -4.23011 -14.3572
upperneck -6.1697 -2.44492 30.9536
head 0.990367 -0.0858444 12.611
rclavicle -6.20208e-014 -1.74931e-014
rhumerus -25.8411 -21.0432 -76.9664
rradius 34.6433
rwrist -0.841508
rhand -33.918 43.768
rfingers 7.12502
rthumb -7.10043 13.9071
lclavicle -6.20208e-014 -1.74931e-014
lhumerus 9.07589 24.8217 79.0274
lradius 26.1034
lwrist -6.35021
lhand -36.2166 40.093
lfingers 7.12502
lthumb -9.31877 69.867
rfemur -56.8091 -13.3619 34.9114
rtibia 58.12
rfoot -17.6551 -1.60739
rtoes -18.1398
lfemur 11.3158 1.63038 -11.9599
ltibia 49.5519
lfoot -0.205119 7.59814
ltoes -28.5006
135
root 6.50227 14.6092 -13.3091 -164.814 26.8489 178.949
lowerback 25.9855 -3.31311 -13.769
upperback 9.89049 -5.83861 -1.23809
thorax -1.75338 -2.51567 7.88787
lowerneck -9.97568 -4.11623 -13.5865
upperneck -6.86681 -2.29362 29.9389
head 0.617021 -0.124028 12.0531
rclavicle -1.41535e-013 3.81667e-014
rhumerus -26.4192 -21.5124 -76.6421
rradius 35.623
rwrist -0.465902
rhand -34.0461 44.5344
rfingers 7.12502
rthumb -7.22403 14.6777
lclavicle -1.41535e-013 3.81667e-014
lhumerus 6.18638 23.2776 77.8433
lradius 29.8182
lwrist 0.493622
lhand -35.4533 39.9361
lfingers 7.12502
lthumb -8.5822 69.7417
rfemur -56.2321 -12.7145 36.8141
rtibia 59.5745
rfoot -18.4913 -3.94038
rtoes -22.2711
lfemur 10.875 3.68097 -11.0389
ltibia 53.3204
lfoot -0.870732 7.30828
ltoes -26.6488
136
root 6.65771 14.4927 -13.5839 -164.468 28.5948 180.209
lowerback 25.7413 -3.07419 -11.9452
upperback 10.0942 -5.06689 -1.19199
thorax -1.81876 -2.10117 6.73221
lowerneck -9.99544 -4.25618 -13.3784
upperneck -7.31834 -2.45838 29.3463
head 0.504714 -0.247589 11.7692
rclavicle 1.74931e-014 -4.29375e-014
rhumerus -27.0157 -22.1056 -76.3578
rradius 36.7357
rwrist -0.755594
rhand -34.1767 45.3793
rfingers 7.12502
rthumb -7.35009 15.5269
lclavicle 1.74931e-014 -4.29375e-014
lhumerus 4.038 21.7182 77.1125
lradius 32.8432
lwrist 5.66275
lhand -33.7855 37.7985
lfingers 7.12502
lthumb -6.97251 67.6637
rfemur -55.2008 -12.327 38.584
rtibia 60.8207
rfoot -19.5277 -5.86713
rtoes -22.1982
lfemur 10.5373 5.84175 -9.89412
ltibia 57.168
lfoot -1.63216 6.89757
ltoes -24.2068
137
root 6.84085 14.4458 -13.8829 -164.441 30.248 181.036
lowerback 25.6767 -2.74738 -10.5793
upperback 10.3198 -4.2924 -1.10585
thorax -1.83493 -1.68968 5.8744
lowerneck -8.92894 -4.28422 -12.7849
upperneck -9.02045 -2.27217 28.6433
head -0.235912 -0.323038 11.4114
rclavicle 6.99722e-014 -6.20208e-014
rhumerus -27.4912 -22.186 -75.9209
rradius 37.5697
rwrist -1.82383
rhand -34.5366 46.0672
rfingers 7.12502
rthumb -7.69748 16.2272
lclavicle 6.99722e-014 -6.20208e-014
lhumerus 2.4002 20.8935 76.8805
lradius 34.94
lwrist 8.73028
lhand -31.6454 34.9533
lfingers 7.12502
lthumb -4.90637 64.8765
rfemur -53.3281 -12.186 39.5347
rtibia 61.5581
rfoot -20.9028 -7.29776
rtoes -21.8474
lfemur 10.2652 7.87204 -9.05367
ltibia 60.713
lfoot -2.09738 6.48611
ltoes -23.7602
138
root 7.04017 14.428 -14.1859 -164.478 31.688 181.57
lowerback 25.6521 -2.40804 -9.56475
upperback 10.489 -3.59554 -0.975598
thorax -1.84562 -1.32425 5.27603
lowerneck -9.04661 -4.32087 -13.3639
upperneck -9.16657 -2.28411 28.3789
head -0.251843 -0.325749 11.428
rclavicle 7.4743e-014 -6.52014e-014
rhumerus -27.8218 -22.2565 -75.4236
rradius 38.0131
rwrist -3.14756
rhand -34.8774 46.3506
rfingers 7.12502
rthumb -8.02645 16.523
lclavicle 7.4743e-014 -6.52014e-014
lhumerus 0.661094 19.9201 76.5657
lradius 36.8011
lwrist 11.4617
lhand -29.4484 32.5285
lfingers 7.12502
lthumb -2.78479 62.4901
rfemur -51.2887 -12.1072 39.8819
rtibia 62.0453
rfoot -22.5172 -8.16299
rtoes -22.3312
lfemur 9.72904 9.52244 -8.48386
ltibia 64.0186
lfoot -2.40331 6.26718
ltoes -22.7527
139
root 7.2531 14.4249 -14.4813 -164.534 32.8539 181.797
lowerback 25.6307 -2.06764 -8.93318
upperback 10.5599 -3.00527 -0.819358
thorax -1.89435 -1.02182 4.94515
lowerneck -9.40988 -4.45283 -14.018
upperneck -9.05566 -2.46661 28.1301
head -0.114183 -0.386605 11.4502
rclavicle -4.13472e-014 7.95139e-016
rhumerus -28.012 -22.4172 -74.9083
rradius 38.0513
rwrist -4.27517
rhand -35.1415 46.4329
rfingers 7.12502
rthumb -8.2813 16.6152
lclavicle -4.13472e-014 7.95139e-016
lhumerus -1.3668 18.7112 76.1379
lradius 38.8073
lwrist 14.3789
lhand -27.1157 30.5207
lfingers 7.12502
lthumb -0.531862 60.4998
rfemur -49.3458 -12.012 39.7302
rtibia 62.4028
rfoot -24.3512 -8.18367
rtoes -21.8821
lfemur 8.70496 10.7874 -8.14905
ltibia 67.2452
lfoot -2.6808 6.18173
ltoes -21.2821
140
root 7.46554 14.4075 -14.7597 -164.752 33.8654 181.317
lowerback 25.5029 -1.69105 -8.83108
upperback 10.4971 -2.51351 -0.800291
thorax -1.98317 -0.780231 4.78396
lowerneck -8.28931 -4.62638 -12.6354
upperneck -10.1173 -2.76427 27.1697
head -0.614878 -0.705853 10.8204
rclavicle 1.98785e-014 -8.90555e-014
rhumerus -28.1042 -22.7055 -74.4524
rradius 37.6421
rwrist -5.02409
rhand -35.5066 46.3677
rfingers 7.12502
rthumb -8.63369 16.5643
lclavicle 1.98785e-014 -8.90555e-014
lhumerus -3.30995 17.9972 75.9363
lradius 40.7465
lwrist 16.6783
lhand -24.8484 28.8173
lfingers 7.12502
lthumb 1.65794 58.7906
rfemur -47.9057 -11.834 38.8422
rtibia 62.9159
rfoot -26.1614 -7.54844
rtoes -20.6113
lfemur 6.927 11.8628 -8.46126
ltibia 70.6832
lfoot -2.90667 6.21036
ltoes -22.0904
141
root 7.67232 14.3689 -15.0217 -164.941 34.8189 180.568
lowerback 25.173 -1.29008 -9.0905
upperback 10.3804 -2.07237 -0.766761
thorax -1.99891 -0.583334 4.85073
lowerneck -6.8152 -5.22302 -11.9947
upperneck -12.1036 -3.33262 27.1991
head -1.32133 -1.17858 10.7426
rclavicle 4.92986e-014 2.38542e-015
rhumerus -27.9398 -23.1221 -74.0273
rradius 36.9302
rwrist -5.4337
rhand -35.7465 46.0979
rfingers 7.12502
rthumb -8.86516 16.3041
lclavicle 4.92986e-014 2.38542e-015
lhumerus -5.22299 18.1567 76.1631
lradius 42.9821
lwrist 18.8146
lhand -23.0036 27.7694
lfingers 7.12502
lthumb 3.43966 57.7214
rfemur -46.857 -11.5709 37.8009
rtibia 63.5296
rfoot -27.4282 -7.5841
rtoes -21.7786
lfemur 4.49707 12.8134 -9.05074
ltibia 74.3175
lfoot -3.36761 6.17225
ltoes -21.5881
